<?xml version="1.0" encoding="UTF-8"?>
<svg version="1.1" xmlns="http://www.w3.org/2000/svg" width="1280" height="1280">
<path d="M0 0 C0.86713623 0.50080078 1.73427246 1.00160156 2.62768555 1.51757812 C4.10035889 2.35675781 4.10035889 2.35675781 5.6027832 3.21289062 C6.64611816 3.81875 7.68945312 4.42460937 8.7644043 5.04882812 C10.88256497 6.24732627 13.00106349 7.44522751 15.11987305 8.64257812 C17.39805178 9.94323102 19.67545409 11.24516035 21.9519043 12.54882812 C22.5573407 12.89509247 23.1627771 13.24135681 23.78656006 13.59811401 C33.16193228 18.96086854 42.50516147 24.37688817 51.828125 29.83032227 C62.35582583 35.98708122 72.9229784 42.07484765 83.4909668 48.16210938 C86.7291559 50.02851192 89.96579867 51.89756575 93.2019043 53.76757812 C103.82318291 59.90392267 114.45513393 66.02045776 125.11071777 72.09698486 C135.38287667 77.95495648 145.62469542 83.8617266 155.83178711 89.83251953 C166.35551749 95.98675802 176.9183635 102.072619 187.48217773 108.15771484 C192.91100372 111.28562961 198.33759711 114.4174126 203.7644043 117.54882812 C205.93106012 118.79884691 208.09772679 120.04884691 210.2644043 121.29882812 C231.93107096 133.79882812 253.59773763 146.29882812 275.2644043 158.79882812 C276.87532959 159.72816162 276.87532959 159.72816162 278.51879883 160.67626953 C280.6709256 161.9179434 282.82294502 163.15980334 284.97485352 164.40185547 C290.01471406 167.31049636 295.05557921 170.21734711 300.10040283 173.11737061 C301.88190008 174.14158477 303.66304752 175.16640464 305.4440918 176.19140625 C307.67517055 177.47516188 309.90690003 178.75778751 312.1394043 180.0390625 C313.15260742 180.62236328 314.16581055 181.20566406 315.2097168 181.80664062 C316.09159668 182.31340332 316.97347656 182.82016602 317.88208008 183.34228516 C318.83324707 183.90544434 319.78441406 184.46860352 320.7644043 185.04882812 C321.42425512 185.35593751 322.08410595 185.66304689 322.76395226 185.97946262 C328.31884816 188.82975024 328.31884816 188.82975024 329.49107552 192.03705978 C329.75135177 194.53357641 329.75463928 196.92000368 329.67260742 199.42895508 C329.67377563 200.36602798 329.67494385 201.30310089 329.67614746 202.26856995 C329.67058271 205.35960193 329.60840772 208.44675353 329.5456543 211.53710938 C329.53073002 213.68228548 329.51934389 215.82748889 329.51135254 217.97270203 C329.48083356 223.61393767 329.40227083 229.25352058 329.3137207 234.894104 C329.2318251 240.65183147 329.19533301 246.40982651 329.1550293 252.16796875 C329.06927784 263.46231398 328.93277224 274.75543353 328.7644043 286.04882812 C326.56789796 287.15256579 324.37079226 288.2550823 322.17333984 289.35693359 C321.56042839 289.66507492 320.94751694 289.97321625 320.31603241 290.29069519 C314.13258225 293.38898607 307.86253411 296.28927694 301.5769043 299.17382812 C292.09565559 303.54395049 282.66008767 307.99677083 273.2644043 312.54882812 C264.22058543 316.92917128 255.13947081 321.21541725 246.0144043 325.42382812 C235.37978612 330.3302813 224.82543931 335.38188106 214.29522705 340.5072937 C205.20312039 344.93039307 196.07348566 349.25630737 186.8894043 353.48632812 C175.01127448 358.95924179 163.23655203 364.62778053 151.47973633 370.35546875 C150.11501827 371.02023985 148.75027267 371.68495441 147.38549805 372.34960938 C146.72725037 372.67019318 146.06900269 372.99077698 145.39080811 373.32107544 C138.93025524 376.46288173 132.439679 379.54028097 125.92822266 382.57519531 C122.61854031 383.96308687 122.61854031 383.96308687 119.7644043 386.04882812 C119.53906422 387.37146014 119.36824319 388.70347482 119.22143555 390.03710938 C115.04043439 424.94562825 100.03862115 457.00972812 72.07348633 479.40283203 C68.42245871 482.13924593 64.62163515 484.61137594 60.7644043 487.04882812 C59.95874023 487.58894531 59.15307617 488.1290625 58.32299805 488.68554688 C32.9037945 505.07254611 -1.98691539 510.34791997 -31.38989258 504.45458984 C-33.34638871 504.02029387 -35.29131538 503.53489821 -37.2355957 503.04882812 C-37.88077148 502.88785645 -38.52594727 502.72688477 -39.19067383 502.56103516 C-53.06159714 498.97622106 -68.18002732 493.2059185 -79.2512207 483.94726562 C-82.43409381 482.50620103 -84.85267703 483.35886981 -88.2355957 484.04882812 C-91.07377857 485.13338132 -93.75777088 486.47242158 -96.46606445 487.84570312 C-97.24560989 488.23064941 -98.02515533 488.6155957 -98.82832336 489.01220703 C-100.4972478 489.83740049 -102.16404112 490.66691575 -103.82885742 491.50036621 C-108.22941867 493.70292456 -112.64565732 495.87368344 -117.05981445 498.04882812 C-117.93834076 498.48281921 -118.81686707 498.9168103 -119.72201538 499.36395264 C-127.0092065 502.95738136 -134.3501861 506.41206788 -141.7355957 509.79882812 C-151.4603021 514.26803072 -161.11327256 518.8647841 -170.7355957 523.54882812 C-180.4415663 528.27340058 -190.17916347 532.90993527 -199.9855957 537.42382812 C-210.63806225 542.32908764 -221.19821378 547.40225347 -231.7355957 552.54882812 C-243.39337695 558.24261828 -255.09422715 563.81128794 -266.88012695 569.23632812 C-275.55009549 573.23785207 -284.15032941 577.36987545 -292.7355957 581.54882812 C-302.48342416 586.29357208 -312.26297802 590.95079678 -322.1105957 595.48632812 C-333.09474128 600.5462994 -343.98343904 605.7807357 -354.85284424 611.08132935 C-364.18552897 615.63017437 -373.55231145 620.08605481 -382.9855957 624.42382812 C-394.78839059 629.8533873 -406.46736886 635.51552542 -418.13726807 641.22354126 C-429.26708302 646.66471791 -440.44350258 651.97224322 -451.70043945 657.14648438 C-461.10863657 661.48705975 -470.42595397 666.00158087 -479.7355957 670.54882812 C-490.23115654 675.67517418 -500.74931854 680.72770724 -511.3605957 685.61132812 C-525.13663083 691.95259837 -538.7689555 698.57492234 -552.40245056 705.21543884 C-559.59442562 708.7155646 -566.81078672 712.16430275 -574.03369141 715.60009766 C-575.29572388 716.20120361 -575.29572388 716.20120361 -576.58325195 716.81445312 C-577.36845215 717.18763672 -578.15365234 717.56082031 -578.96264648 717.9453125 C-581.21933208 719.04093214 -583.44270648 720.19021866 -585.66918945 721.34570312 C-589.2355957 723.04882812 -589.2355957 723.04882812 -592.2355957 723.04882812 C-590.81256575 719.57431401 -589.24888277 718.0749482 -586.11450195 716.05273438 C-584.84968994 715.2250354 -584.84968994 715.2250354 -583.55932617 714.38061523 C-582.64812012 713.79675049 -581.73691406 713.21288574 -580.7980957 712.61132812 C-578.87422493 711.3545769 -576.95106195 710.0967416 -575.02856445 708.83789062 C-573.56942627 707.8870459 -573.56942627 707.8870459 -572.08081055 706.91699219 C-567.88556337 704.1623988 -563.74525428 701.33075406 -559.6105957 698.48632812 C-558.838125 697.95612061 -558.0656543 697.42591309 -557.26977539 696.87963867 C-555.71007947 695.80901372 -554.15067101 694.73796988 -552.59155273 693.66650391 C-549.3846934 691.46457127 -546.17329923 689.2692991 -542.96191406 687.07397461 C-535.00039338 681.63128034 -527.04744846 676.17624904 -519.1027832 670.70898438 C-516.56785701 668.96455323 -514.03139562 667.222396 -511.4934082 665.48242188 C-503.61426724 660.07807422 -495.76237879 654.63584635 -487.9230957 649.17382812 C-478.45536485 642.57831275 -468.94793591 636.04360928 -459.41723633 629.53955078 C-455.95610593 627.1745483 -452.50172819 624.79976135 -449.0480957 622.42382812 C-448.3991333 621.97740967 -447.7501709 621.53099121 -447.08154297 621.07104492 C-445.78340625 620.17795675 -444.48531037 619.28480922 -443.18725586 618.39160156 C-439.87067806 616.10974293 -436.5530786 613.82937057 -433.2355957 611.54882812 C-431.90225762 610.63216836 -430.56892429 609.7155017 -429.2355957 608.79882812 C-405.2355957 592.29882813 -405.2355957 592.29882813 -403.23730469 590.92504883 C-401.8982178 590.00439597 -400.55918824 589.08365972 -399.22021484 588.1628418 C-395.97536568 585.93149121 -392.72967769 583.70138865 -389.48168945 581.47460938 C-381.66853444 576.11505564 -373.88312431 570.7171462 -366.1105957 565.29882812 C-356.55742402 558.641516 -346.95339401 552.06221198 -337.32543945 545.51367188 C-330.90929318 541.14954175 -324.51629405 536.75205426 -318.12573242 532.35058594 C-314.89238419 530.12374368 -311.65787687 527.89858818 -308.4230957 525.67382812 C-307.43962158 524.99719116 -307.43962158 524.99719116 -306.4362793 524.30688477 C-302.86470265 521.85104757 -299.28910862 519.40127323 -295.70825195 516.95898438 C-287.64033099 511.45472544 -279.59991819 505.91668255 -271.6105957 500.29882812 C-263.04542117 494.2784833 -254.39848856 488.38441109 -245.73193359 482.51123047 C-237.67466911 477.04439531 -229.67322151 471.50165529 -221.68945312 465.92822266 C-215.23332126 461.42585446 -208.74580584 456.97258879 -202.2355957 452.54882812 C-193.73540514 446.77261925 -185.28831415 440.92417761 -176.86083984 435.04248047 C-171.09860333 431.02591598 -165.31498352 427.04351268 -159.50341797 423.09863281 C-157.63962432 421.83113095 -155.77932957 420.55846637 -153.92285156 419.28027344 C-149.90416187 416.51496116 -145.88420719 413.80463725 -141.7121582 411.27539062 C-141.0425708 410.85112793 -140.3729834 410.42686523 -139.68310547 409.98974609 C-137.94804307 408.89356239 -136.18847959 407.83641571 -134.42700195 406.78320312 C-131.85863383 403.57846572 -131.9964642 402.96442599 -132.37231445 399.03710938 C-132.51338623 398.07208496 -132.65445801 397.10706055 -132.79980469 396.11279297 C-137.32256516 364.3141129 -128.55377884 332.03480123 -110.1730957 305.98632812 C-106.14352495 300.74869693 -101.76233477 295.85848839 -97.2355957 291.04882812 C-96.6580957 290.39527344 -96.0805957 289.74171875 -95.4855957 289.06835938 C-76.4688121 268.4809932 -45.67370875 255.69636196 -17.97998047 253.8293457 C-2.64279278 253.2942884 11.94266606 253.95578174 26.7644043 258.04882812 C27.43713379 258.23074707 28.10986328 258.41266602 28.80297852 258.60009766 C37.18455653 260.93958027 44.82538624 264.31889527 52.40014648 268.54589844 C56.08600016 270.55944728 56.08600016 270.55944728 60.18457031 270.828125 C63.06650249 269.95757257 65.03494097 268.77662177 67.50268555 267.05664062 C68.39713379 266.43950195 69.29158203 265.82236328 70.21313477 265.18652344 C71.15817871 264.52233398 72.10322266 263.85814453 73.0769043 263.17382812 C74.05804199 262.49416992 75.03917969 261.81451172 76.05004883 261.11425781 C78.03507697 259.73863687 80.01785167 258.35975817 81.99829102 256.97753906 C85.0595722 254.8430182 88.13400366 252.72849785 91.21264648 250.61914062 C93.12381645 249.30950971 95.03237084 247.99615349 96.94018555 246.68164062 C99.64388495 244.81929486 102.34990477 242.96037799 105.05737305 241.10351562 C105.7716748 240.61334961 106.48597656 240.12318359 107.22192383 239.61816406 C108.57282442 238.69124132 109.92403443 237.76476929 111.27563477 236.83886719 C115.47383353 233.95665282 119.62812882 231.01928078 123.7644043 228.04882812 C120.48343147 225.32347715 117.20583497 223.01663101 113.50268555 220.90429688 C112.47981445 220.31777344 111.45694336 219.73125 110.40307617 219.12695312 C108.75662109 218.19109375 108.75662109 218.19109375 107.0769043 217.23632812 C105.91453713 216.571414 104.75243249 215.90604075 103.59057617 215.24023438 C101.17898969 213.85873683 98.76629085 212.47921247 96.3527832 211.10107422 C90.81269475 207.93544258 85.28946449 204.74058925 79.7644043 201.54882812 C77.59781634 200.29869171 75.43114942 199.04869213 73.2644043 197.79882812 C60.26440429 190.29882812 60.26440429 190.29882812 57.01196289 188.42236328 C54.85349932 187.17713328 52.69497107 185.9320154 50.53637695 184.68701172 C43.85581196 180.83365457 37.1778157 176.97588813 30.50146484 173.11523438 C27.23095915 171.22669605 23.95697824 169.34430931 20.68237305 167.46289062 C17.02273693 165.35911262 13.37914545 163.23267849 9.75268555 161.07226562 C9.01421387 160.63897949 8.27574219 160.20569336 7.51489258 159.75927734 C6.19259742 158.98342653 4.87648016 158.19688995 3.56860352 157.39697266 C1.02305359 155.91907365 -0.65312068 154.98713684 -3.63061523 155.30249023 C-6.40918992 156.0985636 -8.51145625 157.16334548 -10.98950195 158.64648438 C-11.91182617 159.19240234 -12.83415039 159.73832031 -13.78442383 160.30078125 C-14.77893555 160.89826172 -15.77344727 161.49574219 -16.7980957 162.11132812 C-18.96530774 163.39515846 -21.13330873 164.67765769 -23.30200195 165.95898438 C-24.43653809 166.63074707 -25.57107422 167.30250977 -26.73999023 167.99462891 C-31.95049892 171.06678287 -37.20982063 174.05342374 -42.46774292 177.04342651 C-51.75509189 182.32526656 -61.01561569 187.64996282 -70.2355957 193.04882812 C-79.463601 198.45239272 -88.7355424 203.77535174 -98.02661133 209.06933594 C-106.12303703 213.68385616 -114.1936608 218.33978068 -122.2355957 223.04882812 C-130.870571 228.10513719 -139.54164592 233.09492216 -148.2355957 238.04882812 C-159.12799461 244.25595978 -169.97795478 250.53281666 -180.7980957 256.86523438 C-181.6746582 257.37715332 -182.5512207 257.88907227 -183.4543457 258.41650391 C-185.4796704 259.60517323 -187.49982604 260.80266309 -189.5168457 262.00537109 C-190.5996582 262.64748535 -191.6824707 263.28959961 -192.7980957 263.95117188 C-193.78938477 264.542771 -194.78067383 265.13437012 -195.80200195 265.74389648 C-198.2355957 267.04882812 -198.2355957 267.04882812 -200.2355957 267.04882812 C-200.23283032 267.72451182 -200.23006495 268.40019552 -200.22721577 269.09635448 C-200.16095929 285.5381349 -200.11131679 301.97987302 -200.08015919 318.42175579 C-200.06469107 326.3729348 -200.04360264 334.32402468 -200.00927734 342.27514648 C-199.97937325 349.20544345 -199.9600203 356.13567587 -199.95333022 363.06603557 C-199.94941965 366.73554367 -199.94023057 370.40486711 -199.91840553 374.07431602 C-199.8942373 378.1709652 -199.89362636 382.26729345 -199.89501953 386.36401367 C-199.87884079 388.18849533 -199.87884079 388.18849533 -199.86233521 390.04983521 C-199.8664592 391.16737686 -199.87058319 392.28491852 -199.87483215 393.43632507 C-199.87206677 394.4051295 -199.8693014 395.37393393 -199.86645222 396.37209606 C-200.41244796 400.33121863 -202.06200423 403.03189288 -205.06640625 405.63525391 C-205.74485596 406.08368652 -206.42330566 406.53211914 -207.12231445 406.99414062 C-207.88761475 407.50799316 -208.65291504 408.0218457 -209.44140625 408.55126953 C-210.26036377 409.08671387 -211.07932129 409.6221582 -211.9230957 410.17382812 C-213.65245186 411.32979469 -215.3816156 412.48604917 -217.1105957 413.64257812 C-217.97555664 414.21621094 -218.84051758 414.78984375 -219.73168945 415.38085938 C-223.3225749 417.77291567 -226.87363246 420.2209217 -230.4230957 422.67382812 C-231.72890065 423.57253396 -233.03488973 424.47097231 -234.34106445 425.36914062 C-234.98221191 425.81032227 -235.62335938 426.25150391 -236.28393555 426.70605469 C-239.60051334 428.98791332 -242.9181128 431.26828568 -246.2355957 433.54882812 C-247.56893378 434.46548789 -248.90226712 435.38215455 -250.2355957 436.29882812 C-258.23559571 441.79882813 -258.23559571 441.79882813 -260.23388672 443.17260742 C-261.57297361 444.09326028 -262.91200317 445.01399653 -264.25097656 445.93481445 C-267.49582573 448.16616504 -270.74151372 450.3962676 -273.98950195 452.62304688 C-280.77184128 457.27554752 -287.53657095 461.95189584 -294.28222656 466.6574707 C-304.43462407 473.73868437 -314.63829711 480.73805164 -324.88427734 487.68310547 C-332.95977112 493.16386895 -340.98047043 498.71968109 -348.98461914 504.30395508 C-358.78722216 511.14015945 -368.65465562 517.87971182 -378.52856445 524.61230469 C-388.02416526 531.08914276 -397.49101984 537.60474303 -406.9230957 544.17382812 C-407.88981201 544.84647705 -408.85652832 545.51912598 -409.85253906 546.2121582 C-414.29897018 549.30619769 -418.74287907 552.40368667 -423.1809082 555.50976562 C-424.63648179 556.52300999 -426.09220042 557.53604604 -427.5480957 558.54882812 C-428.20575928 559.0117627 -428.86342285 559.47469727 -429.54101562 559.95166016 C-434.00820082 563.04882812 -434.00820082 563.04882812 -436.2355957 563.04882812 C-434.81639568 558.58848519 -432.36942844 555.72035255 -429.1730957 552.42382812 C-424.69290567 547.67897311 -420.50981595 542.78264615 -416.4152832 537.69726562 C-414.25802172 535.07607694 -412.0224857 532.55728532 -409.7355957 530.04882812 C-406.71277149 526.72893326 -403.81047409 523.35118701 -400.9855957 519.86132812 C-395.77041055 513.4217082 -390.32227819 507.19427409 -384.88208008 500.9453125 C-382.29922187 497.97027653 -379.73499139 494.9794173 -377.1730957 491.98632812 C-376.68292969 491.41366211 -376.19276367 490.84099609 -375.68774414 490.25097656 C-374.69970711 489.09642374 -373.71175122 487.94180147 -372.72387695 486.78710938 C-371.21887521 485.02929894 -369.71191868 483.27318367 -368.2043457 481.51757812 C-362.91282975 475.35421787 -357.63874083 469.17715947 -352.40185547 462.96728516 C-349.92148596 460.02935428 -347.42686451 457.10467532 -344.9152832 454.19335938 C-344.36420898 453.55398438 -343.81313477 452.91460938 -343.24536133 452.25585938 C-342.17553305 451.01603449 -341.10398423 449.77769166 -340.03051758 448.54101562 C-335.93835503 443.82193988 -335.93835503 443.82193988 -335.16955662 437.90905476 C-335.18011634 437.03650746 -335.19067607 436.16396016 -335.20155579 435.26497203 C-335.21831279 434.30051054 -335.2350698 433.33604905 -335.25233459 432.34236145 C-335.26574133 431.32218089 -335.27914806 430.30200034 -335.29296106 429.25090522 C-335.32282536 427.00513659 -335.35492795 424.75939693 -335.38892937 422.51368713 C-335.48281379 416.2711382 -335.55887867 410.02836477 -335.63673401 403.78559875 C-335.64942364 402.79101719 -335.64942364 402.79101719 -335.66236962 401.77634306 C-335.79551998 391.3252333 -335.8908608 380.87427331 -335.95713806 370.42253113 C-335.96164974 369.7155705 -335.96616143 369.00860988 -335.97080982 368.28022621 C-336.01699488 360.96598567 -336.05866633 353.65172468 -336.09739459 346.33744114 C-336.11754594 342.57692363 -336.1389555 338.81641428 -336.16113281 335.0559082 C-336.16552777 334.30733894 -336.16992273 333.55876968 -336.17445087 332.7875165 C-336.24816352 320.68459345 -336.41075454 308.58439388 -336.60562748 296.48288623 C-336.80378441 284.0468251 -336.90220817 271.61276797 -336.91025919 259.17511958 C-336.917664 252.19490915 -336.97106154 245.22136601 -337.13920784 238.24302101 C-338.15756924 194.55250907 -338.15756924 194.55250907 -331.75944138 186.32845688 C-326.24638991 180.65864233 -319.18981195 178.17718452 -311.67747688 176.14990997 C-305.71383574 174.24209948 -300.65641908 170.90861069 -295.3605957 167.61132812 C-294.15356983 166.90609824 -292.94375683 166.20556653 -291.72875977 165.51416016 C-290.78742188 164.97130371 -289.84608398 164.42844727 -288.8762207 163.86914062 C-281.37392648 159.54740904 -273.85200483 155.26028403 -266.33087158 150.97146606 C-258.27296358 146.3748859 -250.24141784 141.73558653 -242.2355957 137.04882812 C-233.64036899 132.01702123 -225.0124744 127.04493741 -216.3605957 122.11132812 C-204.03534375 115.08279305 -191.73837503 108.00642378 -179.45336914 100.90771484 C-174.04888925 97.78558207 -168.64212158 94.66741608 -163.2355957 91.54882812 C-161.0689182 90.29884691 -158.90225153 89.04884691 -156.7355957 87.79882812 C-65.7355957 35.29882813 -65.7355957 35.29882813 -62.48291016 33.42236328 C-60.32509768 32.17741531 -58.16738218 30.93229923 -56.00976562 29.68701172 C-50.45842978 26.48330162 -44.90523029 23.28289182 -39.34887695 20.08789062 C-37.08181835 18.78343166 -34.81488915 17.47874779 -32.5480957 16.17382812 C-31.46391357 15.54976074 -30.37973145 14.92569336 -29.26269531 14.28271484 C-22.08400708 10.14092986 -14.96130342 5.9196983 -7.89575195 1.58789062 C-2.96832723 -1.26292485 -2.96832723 -1.26292485 0 0 Z M-18.1105957 311.92382812 C-18.95195068 312.23118896 -19.79330566 312.5385498 -20.66015625 312.85522461 C-22.50946568 313.53521353 -24.35629357 314.22197941 -26.20092773 314.91455078 C-29.48453452 316.14187477 -32.77966239 317.33506779 -36.07543945 318.52929688 C-38.40030938 319.38821345 -40.72453663 320.2488717 -43.0480957 321.11132812 C-44.15072754 321.51013184 -45.25335937 321.90893555 -46.3894043 322.31982422 C-54.10080004 325.23544028 -60.55077521 328.1628776 -64.38916016 335.80102539 C-67.18111331 342.38725971 -66.81276877 349.23259682 -66.7668457 356.26757812 C-66.76954648 357.73531348 -66.77343376 359.20304708 -66.77844238 360.67077637 C-66.78431003 363.73365462 -66.77586401 366.79606344 -66.75708008 369.85888672 C-66.73429136 373.76257454 -66.74742933 377.66516195 -66.77136993 381.56880951 C-66.78590277 384.59568401 -66.781188 387.62230249 -66.77085876 390.64918518 C-66.76821206 392.08753086 -66.7713879 393.52590067 -66.78077698 394.96421814 C-66.82846219 404.31964568 -66.36820351 411.95279028 -60.32543945 419.40429688 C-52.45906483 426.09999506 -44.14128558 432.16698013 -35.76977539 438.21289062 C-33.23094201 440.05219959 -30.70476725 441.90778926 -28.1809082 443.76757812 C-26.57437113 444.94498049 -24.96760879 446.12207555 -23.3605957 447.29882812 C-22.6180957 447.84764648 -21.8755957 448.39646484 -21.1105957 448.96191406 C-16.01412469 452.66907955 -11.84272131 455.33026363 -5.3605957 455.36132812 C-4.55879883 455.37808594 -3.75700195 455.39484375 -2.9309082 455.41210938 C4.35011074 454.43075465 9.69463312 450.17767448 15.3894043 445.86132812 C16.19974121 445.25490479 17.01007813 444.64848145 17.8449707 444.02368164 C20.49043161 442.03945982 23.12730184 440.04414113 25.7644043 438.04882812 C27.67570152 436.6137177 29.58716182 435.17882443 31.4987793 433.74414062 C33.37961817 432.32570549 35.25984125 430.9064534 37.1394043 429.48632812 C38.46705811 428.4872644 38.46705811 428.4872644 39.8215332 427.46801758 C49.84596586 419.90549186 49.84596586 419.90549186 55.7644043 409.04882812 C56.35251478 403.850834 56.32851616 398.67737936 56.2956543 393.45507812 C56.29835374 391.93867749 56.30223992 390.42227855 56.30725098 388.90588379 C56.31312486 385.7386821 56.30465208 382.57193383 56.28588867 379.40478516 C56.2630997 375.36309968 56.27623426 371.32247695 56.30017853 367.28083038 C56.31469423 364.15277223 56.31000433 361.02496236 56.29966736 357.89689636 C56.29701596 356.40748465 56.30021347 354.91804974 56.30958557 353.42866516 C56.3542822 344.33106735 56.16896328 337.35013935 50.12158203 330.0715332 C45.93474892 326.65240248 41.91383446 324.52563636 36.8269043 322.73632812 C36.07199707 322.45708496 35.31708984 322.1778418 34.53930664 321.89013672 C32.8740845 321.2747358 31.20664592 320.66530821 29.53735352 320.06103516 C26.47966331 318.94488939 23.43616981 317.79462096 20.39331055 316.63867188 C14.08561635 314.24634622 14.08561635 314.24634622 7.7722168 311.86914062 C6.90226074 311.54187988 6.03230469 311.21461914 5.13598633 310.87744141 C-3.28013258 307.93691149 -9.94768903 308.85614298 -18.1105957 311.92382812 Z " fill="#42AFD9" transform="translate(693.235595703125,257.951171875)"/>
<path d="M0 0 C0.99 0.33 1.98 0.66 3 1 C3.02334193 20.63614032 3.04098555 40.27227784 3.05181217 59.90842915 C3.05697237 69.02546464 3.06400984 78.14249152 3.07543945 87.25952148 C3.0853947 95.20426714 3.09185544 103.14900656 3.09408849 111.09375829 C3.09539417 115.30192187 3.09847101 119.51006761 3.10573006 123.71822548 C3.1125035 127.67684331 3.11461424 131.63543591 3.11310768 135.59405899 C3.11338341 137.04893951 3.1153807 138.50382085 3.11920547 139.95869637 C3.12416329 141.94135558 3.12239273 143.92402825 3.12025452 145.9066925 C3.12117631 147.01745305 3.1220981 148.1282136 3.12304783 149.27263355 C3 152 3 152 2 155 C0.15600586 156.31176758 0.15600586 156.31176758 -2.28515625 157.64453125 C-3.19547607 158.14895752 -4.1057959 158.65338379 -5.04370117 159.1730957 C-6.03990479 159.71409912 -7.0361084 160.25510254 -8.0625 160.8125 C-10.18576628 161.98801246 -12.30813586 163.1651458 -14.4296875 164.34375 C-15.5237793 164.94960938 -16.61787109 165.55546875 -17.74511719 166.1796875 C-22.76672114 168.98804927 -27.7270949 171.89782004 -32.6875 174.8125 C-41.34596784 179.88458668 -50.03439191 184.90187098 -58.75 189.875 C-59.33280731 190.20760834 -59.91561462 190.54021667 -60.51608276 190.88290405 C-65.27345409 193.5974548 -70.03244343 196.30916408 -74.79150391 199.02075195 C-88.58608072 206.88106508 -102.36319927 214.76737333 -116.06787109 222.78393555 C-126.58401252 228.93388375 -137.13945966 235.01510004 -147.69580078 241.09570312 C-151.02614252 243.01506662 -154.35509148 244.93682353 -157.68359375 246.859375 C-167.65143316 252.61613159 -177.6239207 258.36365676 -187.625 264.0625 C-195.00473884 268.26921908 -202.35379074 272.52606311 -209.6875 276.8125 C-227.69850779 287.33948835 -245.78067842 297.74073003 -263.90216064 308.07608032 C-272.00088385 312.69668991 -280.07559497 317.35644758 -288.125 322.0625 C-289.08003418 322.6203418 -290.03506836 323.17818359 -291.01904297 323.75292969 C-295.18038949 326.18369778 -299.34160961 328.61467418 -303.50097656 331.04882812 C-306.49918146 332.80267208 -309.5005496 334.55100128 -312.50384521 336.29611206 C-314.21308947 337.29101541 -315.91932488 338.29108225 -317.62548828 339.29125977 C-318.6617334 339.89252686 -319.69797852 340.49379395 -320.765625 341.11328125 C-322.13895996 341.91439331 -322.13895996 341.91439331 -323.54003906 342.73168945 C-325.79477304 343.89418876 -327.48502869 344.72980705 -330 345 C-331.90917969 344.32592773 -331.90917969 344.32592773 -333.921875 343.18359375 C-334.68693359 342.75667236 -335.45199219 342.32975098 -336.24023438 341.88989258 C-337.06845703 341.41060303 -337.89667969 340.93131348 -338.75 340.4375 C-339.62978516 339.94080811 -340.50957031 339.44411621 -341.41601562 338.93237305 C-344.28676898 337.30412077 -347.1448516 335.65544989 -350 334 C-350.93521484 333.45827148 -351.87042969 332.91654297 -352.83398438 332.35839844 C-357.76398993 329.49641655 -362.68428243 326.61815244 -367.6015625 323.734375 C-374.33166352 319.79510869 -381.10015897 315.92406836 -387.875 312.0625 C-402.34992337 303.80908414 -416.78222352 295.48282335 -431.20898438 287.14550781 C-434.43068275 285.28397328 -437.65271079 283.42301161 -440.875 281.5625 C-441.94105469 280.94697266 -443.00710938 280.33144531 -444.10546875 279.69726562 C-452.68890431 274.74607621 -461.29322608 269.83210047 -469.90170288 264.9246521 C-478.02660544 260.29143163 -486.11932508 255.60634125 -494.1875 250.875 C-503.47073055 245.4313167 -512.82458428 240.12566482 -522.24951172 234.9309082 C-526.75223077 232.4381658 -531.19609004 229.9349496 -535.484375 227.0859375 C-536.47425415 226.43878784 -536.47425415 226.43878784 -537.48413086 225.77856445 C-539.1489093 224.67130562 -540.78888966 223.52698956 -542.42578125 222.37890625 C-551.35715546 218.93325041 -563.00895854 222.76287651 -572.13452148 224.50024414 C-573.50737305 224.75707401 -574.88032648 225.01335988 -576.25337219 225.26914978 C-579.184029 225.81625768 -582.11395904 226.3670506 -585.04336357 226.92082405 C-589.67779335 227.79680673 -594.31387369 228.66382433 -598.95021057 229.52964783 C-607.94539538 231.21070826 -616.938915 232.90057068 -625.93224335 234.59152985 C-637.40482685 236.74829267 -648.87807485 238.90147675 -660.35298783 241.0458135 C-664.96036715 241.90711452 -669.56685452 242.77299674 -674.17269409 243.64249241 C-677.03386928 244.18173865 -679.89572835 244.71728337 -682.75778008 245.25185585 C-684.71463605 245.61854355 -686.67064135 245.98976191 -688.62661743 246.3611145 C-689.7941304 246.57843735 -690.96164337 246.79576019 -692.16453552 247.01966858 C-693.17674888 247.2101027 -694.18896223 247.40053682 -695.23184872 247.59674168 C-697.86831522 247.98081644 -700.34057827 248.07631056 -703 248 C-702 245 -702 245 -699.95092773 243.76757812 C-698.58109741 243.1555957 -698.58109741 243.1555957 -697.18359375 242.53125 C-696.13026855 242.05260498 -695.07694336 241.57395996 -693.99169922 241.08081055 C-692.81881348 240.55914307 -691.64592773 240.03747559 -690.4375 239.5 C-687.86359805 238.33444097 -685.29335413 237.16088675 -682.72265625 235.98828125 C-682.03236328 235.67462112 -681.34207031 235.360961 -680.63085938 235.03779602 C-671.82768092 231.0295533 -663.10536139 226.85125261 -654.375 222.6875 C-650.93143316 221.04724428 -647.48733694 219.40810349 -644.04296875 217.76953125 C-643.19469513 217.36593384 -642.34642151 216.96233643 -641.47244263 216.54650879 C-636.02636192 213.95744099 -630.57333335 211.38368348 -625.11328125 208.82421875 C-624.40877838 208.49395691 -623.70427551 208.16369507 -622.97842407 207.82342529 C-621.57567914 207.16596137 -620.17291847 206.50853103 -618.7701416 205.85113525 C-605.75954815 199.75306301 -592.81485981 193.53111508 -579.90261841 187.22756958 C-569.06237608 181.93807812 -558.1698721 176.78689903 -547.21337891 171.74145508 C-538.93008086 167.91926553 -530.70540452 163.9855643 -522.5 160 C-512.00456673 154.90223314 -501.45704962 149.93110006 -490.85131836 145.06591797 C-484.21017812 142.00437618 -477.62998721 138.84885515 -471.08203125 135.59375 C-469.56676776 134.84416553 -468.05146845 134.09465346 -466.53613281 133.34521484 C-463.59922419 131.89188857 -460.67213881 130.42077533 -457.74902344 128.93994141 C-456.4072315 128.27439845 -455.06512454 127.60949012 -453.72265625 126.9453125 C-452.54453369 126.35250488 -451.36641113 125.75969727 -450.15258789 125.14892578 C-446.71431266 123.89588441 -445.39774831 123.78915592 -442 125 C-439.6418457 126.16064453 -439.6418457 126.16064453 -437.17578125 127.6328125 C-436.24330566 128.18380615 -435.31083008 128.7347998 -434.35009766 129.30249023 C-433.34769043 129.90391846 -432.3452832 130.50534668 -431.3125 131.125 C-429.13974019 132.41086159 -426.96654843 133.69599352 -424.79296875 134.98046875 C-423.67067871 135.6461084 -422.54838867 136.31174805 -421.39208984 136.99755859 C-415.99305788 140.18475164 -410.55944522 143.31119989 -405.125 146.4375 C-402.94267151 147.6952486 -400.76038005 148.95306148 -398.578125 150.2109375 C-396.3854595 151.47403269 -394.19275111 152.73705344 -392 154 C-377.14651596 162.5550779 -362.30773069 171.13376814 -347.5078125 179.78125 C-346.16831543 180.5546875 -346.16831543 180.5546875 -344.80175781 181.34375 C-342.78426712 182.53638305 -340.79134396 183.77093056 -338.81542969 185.03125 C-337.76000977 185.69125 -336.70458984 186.35125 -335.6171875 187.03125 C-334.66183105 187.64548828 -333.70647461 188.25972656 -332.72216797 188.89257812 C-330.06670785 190.28740089 -330.06670785 190.28740089 -327.44116211 189.34472656 C-326.63557861 188.9009668 -325.82999512 188.45720703 -325 188 C-323.86244263 187.40687012 -323.86244263 187.40687012 -322.7019043 186.80175781 C-321.91726807 186.35670898 -321.13263184 185.91166016 -320.32421875 185.453125 C-319.42678955 184.94547607 -318.52936035 184.43782715 -317.60473633 183.91479492 C-316.64204834 183.3654126 -315.67936035 182.81603027 -314.6875 182.25 C-313.67131592 181.67290283 -312.65513184 181.09580566 -311.6081543 180.5012207 C-303.48295661 175.87474475 -295.4043584 171.17017856 -287.33666992 166.44433594 C-279.58753454 161.91014141 -271.80089839 157.44421692 -264 153 C-254.1595174 147.3932565 -244.3566522 141.72577539 -234.58154297 136.00561523 C-227.43475669 131.82702666 -220.25844748 127.70323795 -213.06591797 123.60400391 C-197.70160504 114.84458616 -182.39105837 105.99196788 -167.125 97.0625 C-157.85433504 91.64045617 -148.5406335 86.29676016 -139.20953369 80.97976685 C-131.11292157 76.36515971 -123.04211199 71.70915114 -115 67 C-105.77199471 61.5964354 -96.5000533 56.27347639 -87.20898438 50.97949219 C-78.13698401 45.80894772 -69.10409946 40.57478214 -60.09350586 35.29785156 C-52.27962433 30.72899778 -44.42649773 26.23174922 -36.5625 21.75 C-28.72987007 17.28443847 -20.90118737 12.81342867 -13.125 8.25 C-12.47217041 7.86811523 -11.81934082 7.48623047 -11.14672852 7.09277344 C-8.25660084 5.38828964 -5.4663048 3.62602414 -2.7421875 1.671875 C-1.38480469 0.84429688 -1.38480469 0.84429688 0 0 Z " fill="#3197C6" transform="translate(1020,678)"/>
<path d="M0 0 C5.43531317 2.88526536 8.93994241 7.00730443 11.2734375 12.62890625 C12.2820452 18.57969167 11.98859852 23.25288718 9.1484375 28.62890625 C6.43694861 31.86762909 3.69107511 34.42008744 -0.1015625 36.31640625 C-0.15054688 37.62996094 -0.19953125 38.94351563 -0.25 40.296875 C-0.32505718 42.0325722 -0.40060373 43.76824828 -0.4765625 45.50390625 C-0.52296875 46.80038086 -0.52296875 46.80038086 -0.5703125 48.12304688 C-0.95403789 56.46907418 -0.95403789 56.46907418 -3.1015625 60.31640625 C-5.4140625 61.81640625 -5.4140625 61.81640625 -8.1015625 62.31640625 C-10.44326779 61.19877418 -12.26480611 60.15316264 -14.1015625 58.31640625 C-14.16165993 56.82408029 -14.1621804 55.32925601 -14.13671875 53.8359375 C-14.14251953 52.91876953 -14.14832031 52.00160156 -14.15429688 51.05664062 C-14.16074248 49.1242474 -14.14045329 47.19155694 -14.09179688 45.25976562 C-14.10796901 39.85994053 -14.10796901 39.85994053 -16.85693359 35.43408203 C-18.95749203 33.85674232 -18.95749203 33.85674232 -21.14038086 32.61499023 C-24.57454647 30.34107926 -26.00061654 27.19724075 -27.1015625 23.31640625 C-28.00858411 17.38297322 -27.42037495 12.32307892 -24.4453125 7.07421875 C-18.69278944 -0.4508841 -8.95307469 -2.91224548 0 0 Z " fill="#3CA8D4" transform="translate(696.1015625,610.68359375)"/>
<path d="M0 0 C0 3 0 3 -1 5 C-1.66 5 -2.32 5 -3 5 C-3 5.66 -3 6.32 -3 7 C-3.66 6.67 -4.32 6.34 -5 6 C-3.35 4.02 -1.7 2.04 0 0 Z M-6 7 C-6 10 -6 10 -7 13 C-7.78375 13.598125 -8.5675 14.19625 -9.375 14.8125 C-12.19265548 16.86341144 -12.19265548 16.86341144 -13.5625 20.125 C-15.08816928 23.17633856 -15.84922139 23.91352462 -19 25 C-19 26.32 -19 27.64 -19 29 C-20.80078125 30.68359375 -20.80078125 30.68359375 -23.3125 32.4375 C-29.38314747 37.04399977 -33.82149145 42.47570718 -38.60791016 48.33203125 C-40.88835638 51.06440736 -43.28187635 53.69042207 -45.6875 56.3125 C-46.51636719 57.21613281 -47.34523438 58.11976563 -48.19921875 59.05078125 C-48.79347656 59.69402344 -49.38773437 60.33726562 -50 61 C-50 56.87255657 -48.38249504 55.95305417 -45.5625 53 C-42.0388425 49.2507482 -38.66698884 45.4486849 -35.4375 41.4375 C-32.55151207 37.86171531 -29.59555196 34.39598682 -26.5 31 C-22.55310182 26.66803858 -18.8386551 22.18334716 -15.15234375 17.62890625 C-12.18823137 14.00849313 -9.11260732 10.4929259 -6 7 Z " fill="#48B6E0" transform="translate(322,743)"/>
<path d="M0 0 C0 0.66 0 1.32 0 2 C-6.63452361 5.28383468 -13.27353086 8.55846318 -19.91577148 11.82666016 C-22.175936 12.94009131 -24.43505662 14.05564405 -26.69311523 15.17333984 C-29.93462899 16.77737322 -33.17979184 18.37379723 -36.42578125 19.96875 C-37.43836502 20.47184692 -38.45094879 20.97494385 -39.49421692 21.49328613 C-40.43496567 21.95376343 -41.37571442 22.41424072 -42.3449707 22.88867188 C-43.17325882 23.2972644 -44.00154694 23.70585693 -44.85493469 24.12683105 C-47 25 -47 25 -50 25 C-48.47547071 20.7158797 -45.61196542 19.13529708 -41.875 16.75 C-40.77929688 16.04359375 -39.68359375 15.3371875 -38.5546875 14.609375 C-37.71164063 14.07828125 -36.86859375 13.5471875 -36 13 C-35.34 13.33 -34.68 13.66 -34 14 C-34.33 14.66 -34.66 15.32 -35 16 C-25.59305653 11.62251146 -16.22861162 7.19183929 -7.00390625 2.43945312 C-2.21335041 0 -2.21335041 0 0 0 Z " fill="#41A9D0" transform="translate(151,956)"/>
<path d="M0 0 C0.99386719 0.00902344 1.98773437 0.01804687 3.01171875 0.02734375 C4.15060547 0.04474609 4.15060547 0.04474609 5.3125 0.0625 C5.3125 0.7225 5.3125 1.3825 5.3125 2.0625 C4.74402344 2.02769531 4.17554688 1.99289062 3.58984375 1.95703125 C-1.89183763 1.7648521 -5.81648092 2.25229669 -10.6875 5.0625 C-14.78015728 9.15515728 -17.62319172 13.05930961 -17.71875 19.0078125 C-17.34191863 23.96314503 -15.94565786 27.20415517 -12.6875 31.0625 C-11.49574575 31.74752806 -10.29596342 32.41871847 -9.08984375 33.078125 C-6.72199539 34.73247241 -5.8268677 35.55229536 -5.05761719 38.3684082 C-4.84502485 41.14006798 -4.816033 43.84594219 -4.875 46.625 C-4.87627901 48.50131294 -4.87005449 50.37764956 -4.85546875 52.25390625 C-4.86860107 53.08092041 -4.8817334 53.90793457 -4.89526367 54.76000977 C-4.6673151 57.28619422 -3.95481247 58.88589944 -2.6875 61.0625 C-4.0075 60.4025 -5.3275 59.7425 -6.6875 59.0625 C-6.67589844 58.45776855 -6.66429687 57.85303711 -6.65234375 57.22998047 C-6.62269272 54.46449203 -6.6545783 51.70292288 -6.6875 48.9375 C-6.66816406 47.98617187 -6.64882813 47.03484375 -6.62890625 46.0546875 C-6.67653218 40.62562471 -6.67653218 40.62562471 -9.44726562 36.17578125 C-11.54707327 34.59902207 -11.54707327 34.59902207 -13.72851562 33.35888672 C-17.1618316 31.08683938 -18.58709638 27.94142276 -19.6875 24.0625 C-20.59452161 18.12906697 -20.00631245 13.06917267 -17.03125 7.8203125 C-12.60224744 2.02655915 -7.13497857 -0.08394092 0 0 Z " fill="#41B3E1" transform="translate(688.6875,609.9375)"/>
<path d="M0 0 C0.99 0.33 1.98 0.66 3 1 C2.67 1.66 2.34 2.32 2 3 C1.01 2.67 0.02 2.34 -1 2 C-0.67 1.34 -0.34 0.68 0 0 Z M-3 2 C-2.34 2.33 -1.68 2.66 -1 3 C-3.35996925 5.77643441 -6.12962594 7.31420364 -9.28125 9.03515625 C-10.90109552 9.94447862 -12.45436346 10.96957564 -14 12 C-15.32 12 -16.64 12 -18 12 C-18 12.66 -18 13.32 -18 14 C-18.99 14 -19.98 14 -21 14 C-21 14.66 -21 15.32 -21 16 C-22.57201172 16.81404297 -22.57201172 16.81404297 -24.17578125 17.64453125 C-25.55484044 18.36689559 -26.93373829 19.08956801 -28.3125 19.8125 C-29.34793945 20.34713867 -29.34793945 20.34713867 -30.40429688 20.89257812 C-31.07138672 21.24384766 -31.73847656 21.59511719 -32.42578125 21.95703125 C-33.34484253 22.43619995 -33.34484253 22.43619995 -34.2824707 22.92504883 C-36.07328457 23.9528653 -36.07328457 23.9528653 -37.53588867 25.56518555 C-39 27 -39 27 -42 28 C-42.33 28.66 -42.66 29.32 -43 30 C-43.99 30 -44.98 30 -46 30 C-46.33 30.99 -46.66 31.98 -47 33 C-47.33 33 -47.66 33 -48 33 C-48 31.35 -48 29.7 -48 28 C-46.96782349 27.40481567 -46.96782349 27.40481567 -45.91479492 26.79760742 C-43.84868738 25.60614462 -41.78269895 24.41447528 -39.71679688 23.22265625 C-37.35557751 21.86065554 -34.99350861 20.50014367 -32.63085938 19.140625 C-27.1085612 15.96103446 -21.59406111 12.77045568 -16.11328125 9.51953125 C-14.80677612 8.74863159 -14.80677612 8.74863159 -13.47387695 7.9621582 C-11.85003185 7.00240213 -10.2299261 6.03628518 -8.61401367 5.06323242 C-6.77717577 3.98132151 -4.89276162 2.98079466 -3 2 Z " fill="#51C2EA" transform="translate(407,420)"/>
<path d="M0 0 C0.66 0.33 1.32 0.66 2 1 C2 1.99 2 2.98 2 4 C2.5775 3.835 3.155 3.67 3.75 3.5 C7.43927257 2.68016165 11.23229888 3 15 3 C15.33 3.66 15.66 4.32 16 5 C11.60554278 5.8407021 7.20923004 6.6712735 2.8125 7.5 C1.56662109 7.73847656 0.32074219 7.97695313 -0.96289062 8.22265625 C-2.7659668 8.56103516 -2.7659668 8.56103516 -4.60546875 8.90625 C-6.26292114 9.22045898 -6.26292114 9.22045898 -7.95385742 9.54101562 C-10.6982428 9.95453206 -13.23175475 10.09009749 -16 10 C-15 7 -15 7 -11.69140625 5.140625 C-10.32013426 4.49954537 -8.94354385 3.86974821 -7.5625 3.25 C-6.86833984 2.92128906 -6.17417969 2.59257813 -5.45898438 2.25390625 C-3.66970026 1.43287946 -1.83663313 0.7088028 0 0 Z " fill="#3CA4CD" transform="translate(333,916)"/>
<path d="M0 0 C0.66 0.33 1.32 0.66 2 1 C0.6875 2.5 0.6875 2.5 -1 4 C-1.99 4 -2.98 4 -4 4 C-4.33 4.99 -4.66 5.98 -5 7 C-6.62979405 7.76500537 -8.26797959 8.51764556 -9.9453125 9.171875 C-13.40344441 10.56564679 -16.67844916 12.31008817 -20 14 C-20.33 13.34 -20.66 12.68 -21 12 C-17.54914225 9.96618904 -14.08820304 7.95020566 -10.625 5.9375 C-9.64015625 5.35677734 -8.6553125 4.77605469 -7.640625 4.17773438 C-6.69960938 3.63310547 -5.75859375 3.08847656 -4.7890625 2.52734375 C-3.91975098 2.01937256 -3.05043945 1.51140137 -2.15478516 0.98803711 C-1.44370605 0.66198486 -0.73262695 0.33593262 0 0 Z M-22 13 C-21.67 13.66 -21.34 14.32 -21 15 C-22.32 15.33 -23.64 15.66 -25 16 C-25 16.66 -25 17.32 -25 18 C-26.155 18.556875 -27.31 19.11375 -28.5 19.6875 C-32.84840663 21.8539383 -36.92763838 24.35729725 -41 27 C-41.66 26.34 -42.32 25.68 -43 25 C-36.07 21.04 -29.14 17.08 -22 13 Z " fill="#51C2EA" transform="translate(456,392)"/>
<path d="M0 0 C0.33 0 0.66 0 1 0 C1 21.45 1 42.9 1 65 C1.66 65.33 2.32 65.66 3 66 C2.1875 68.4375 2.1875 68.4375 1 71 C-0.485 71.495 -0.485 71.495 -2 72 C-1.75885216 70.97033867 -1.75885216 70.97033867 -1.51283264 69.9198761 C-0.94081852 66.66304289 -0.83827194 63.58891414 -0.79467773 60.28198242 C-0.78477814 59.62776306 -0.77487854 58.9735437 -0.76467896 58.29949951 C-0.73326086 56.15152522 -0.70838508 54.00352887 -0.68359375 51.85546875 C-0.66300718 50.36045275 -0.64201027 48.86544235 -0.62062073 47.37043762 C-0.56557585 43.44634552 -0.51608947 39.52220242 -0.46777344 35.59802246 C-0.41742956 31.58939099 -0.36181093 27.58083306 -0.30664062 23.57226562 C-0.19927431 15.71490603 -0.09778207 7.85748469 0 0 Z " fill="#3AA3CE" transform="translate(749,600)"/>
<path d="M0 0 C0 0.66 0 1.32 0 2 C-1.65 2.66 -3.3 3.32 -5 4 C-5.33 3.34 -5.66 2.68 -6 2 C-2.25 0 -2.25 0 0 0 Z M-6 3 C-7.29847781 5.59695563 -8.53628294 6.44396817 -11 8 C-13.32873375 8.68255989 -15.66182791 9.35050775 -18 10 C-18.66 10.66 -19.32 11.32 -20 12 C-21.43534041 12.73429577 -22.89757557 13.41704713 -24.375 14.0625 C-25.14585937 14.40410156 -25.91671875 14.74570312 -26.7109375 15.09765625 C-28.79878684 15.92068218 -30.81208872 16.51546257 -33 17 C-33.33 16.34 -33.66 15.68 -34 15 C-29.90041244 12.99051178 -25.79461574 10.99405072 -21.6875 9 C-19.93663086 8.14148438 -19.93663086 8.14148438 -18.15039062 7.265625 C-17.03212891 6.72421875 -15.91386719 6.1828125 -14.76171875 5.625 C-13.73006592 5.12226562 -12.69841309 4.61953125 -11.63549805 4.1015625 C-9 3 -9 3 -6 3 Z " fill="#3EA7D3" transform="translate(441,866)"/>
<path d="M0 0 C0.66 0.33 1.32 0.66 2 1 C1.360625 1.268125 0.72125 1.53625 0.0625 1.8125 C-2.33131686 2.88667752 -2.33131686 2.88667752 -3 6 C-3.99 5.67 -4.98 5.34 -6 5 C-6.2475 5.639375 -6.495 6.27875 -6.75 6.9375 C-8 9 -8 9 -10 9.875 C-10.99 9.936875 -10.99 9.936875 -12 10 C-12.66 9.34 -13.32 8.68 -14 8 C-11.7136988 6.63597957 -9.42178251 5.28365726 -7.125 3.9375 C-6.47402344 3.54755859 -5.82304688 3.15761719 -5.15234375 2.75585938 C-3.46934275 1.77555467 -1.73703801 0.88101568 0 0 Z M-14 9 C-15.45336318 12.80797391 -17.17908118 13.96067277 -20.8125 15.6875 C-22.09060547 16.31205078 -22.09060547 16.31205078 -23.39453125 16.94921875 C-25.93663655 17.97444562 -28.30087623 18.55903005 -31 19 C-19.46153846 9 -19.46153846 9 -14 9 Z " fill="#4EBFE7" transform="translate(567,328)"/>
<path d="M0 0 C0.66 0.33 1.32 0.66 2 1 C0.75 2.5625 0.75 2.5625 -1 4 C-3.1875 3.6875 -3.1875 3.6875 -5 3 C-2.625 1.4375 -2.625 1.4375 0 0 Z M-5 4 C-5.33 4.99 -5.66 5.98 -6 7 C-6.66 7 -7.32 7 -8 7 C-8 7.66 -8 8.32 -8 9 C-8.53625 9.103125 -9.0725 9.20625 -9.625 9.3125 C-12.19076628 9.97762618 -12.19076628 9.97762618 -15.125 11.5625 C-18 13 -18 13 -20 13 C-20 13.66 -20 14.32 -20 15 C-24.38461538 18 -24.38461538 18 -27 18 C-27 18.66 -27 19.32 -27 20 C-28.98 20 -30.96 20 -33 20 C-28.23272383 15.8121156 -22.80588865 12.86354096 -17.3125 9.75 C-15.86907227 8.91855469 -15.86907227 8.91855469 -14.39648438 8.0703125 C-13.47802734 7.54695313 -12.55957031 7.02359375 -11.61328125 6.484375 C-10.77579346 6.00709961 -9.93830566 5.52982422 -9.07543945 5.03808594 C-7 4 -7 4 -5 4 Z " fill="#4FC0E8" transform="translate(534,347)"/>
<path d="M0 0 C-1.75 3.875 -1.75 3.875 -4 5 C-5.99960012 5.039992 -8.00047242 5.04346799 -10 5 C-3.63636364 0 -3.63636364 0 0 0 Z M-10 6 C-13.79692186 8.82561627 -16.18569279 10.56638908 -21 10 C-14.14893617 4.61702128 -14.14893617 4.61702128 -10 6 Z M-21 10 C-21.8125 11.9375 -21.8125 11.9375 -23 14 C-26 15 -26 15 -30 15 C-30 14.34 -30 13.68 -30 13 C-23.25 10 -23.25 10 -21 10 Z " fill="#3EABD7" transform="translate(401,885)"/>
<path d="M0 0 C1.2375 0.70962891 1.2375 0.70962891 2.5 1.43359375 C11.64062133 6.66904187 20.81329424 11.84590014 30 17 C29.01 17.66 28.02 18.32 27 19 C26.58234375 18.54625 26.1646875 18.0925 25.734375 17.625 C23.96538349 15.96756651 22.42610308 15.04452948 20.25 14 C19.55390625 13.66484375 18.8578125 13.3296875 18.140625 12.984375 C15.11753217 11.59419363 12.07149522 10.27978967 9 9 C9 8.34 9 7.68 9 7 C6.03 6.01 3.06 5.02 0 4 C0 2.68 0 1.36 0 0 Z " fill="#3AA6D3" transform="translate(977,422)"/>
<path d="M0 0 C-0.33 0.66 -0.66 1.32 -1 2 C-3.5625 2.625 -3.5625 2.625 -6 3 C-6 3.66 -6 4.32 -6 5 C-8.31 5.33 -10.62 5.66 -13 6 C-9.09130466 2.84297684 -5.1385061 0 0 0 Z M-15 6 C-14.34 6.33 -13.68 6.66 -13 7 C-17.75 10 -17.75 10 -20 10 C-20.33 10.66 -20.66 11.32 -21 12 C-22.32467746 12.6837045 -23.65863633 13.34964186 -25 14 C-25.66 14.66 -26.32 15.32 -27 16 C-27.33 14.68 -27.66 13.36 -28 12 C-25.87959258 10.96966118 -23.75352092 9.95097146 -21.625 8.9375 C-20.44164062 8.36902344 -19.25828125 7.80054688 -18.0390625 7.21484375 C-17.03617187 6.81394531 -16.03328125 6.41304687 -15 6 Z " fill="#3CA6D2" transform="translate(496,840)"/>
<path d="M0 0 C0.66 0.33 1.32 0.66 2 1 C0.68 2.32 -0.64 3.64 -2 5 C-2.99 4.34 -3.98 3.68 -5 3 C-2.625 1.4375 -2.625 1.4375 0 0 Z M-7 4 C-5 5 -5 5 -5 5 Z M-7 5 C-7.33 5.99 -7.66 6.98 -8 8 C-8.99 8 -9.98 8 -11 8 C-11 8.66 -11 9.32 -11 10 C-12.093125 10.433125 -13.18625 10.86625 -14.3125 11.3125 C-17.09408793 12.49495641 -19.06361939 13.60800043 -21 16 C-21.99 15.34 -22.98 14.68 -24 14 C-21.54481265 12.49462965 -19.0861548 10.99555574 -16.625 9.5 C-15.92632813 9.07074219 -15.22765625 8.64148438 -14.5078125 8.19921875 C-9.2265625 5 -9.2265625 5 -7 5 Z " fill="#4CBCE4" transform="translate(619,298)"/>
<path d="M0 0 C0.66 0.33 1.32 0.66 2 1 C0.6415798 4.04332765 -0.88463024 6.12309151 -3.2578125 8.453125 C-3.88300781 9.071875 -4.50820313 9.690625 -5.15234375 10.328125 C-5.80332031 10.96234375 -6.45429687 11.5965625 -7.125 12.25 C-7.78371094 12.8996875 -8.44242188 13.549375 -9.12109375 14.21875 C-10.74296643 15.81711727 -12.3693281 17.41061897 -14 19 C-14.66 18.67 -15.32 18.34 -16 18 C-14.48761903 13.76533329 -11.64130156 12.40170954 -8 10 C-7.67 9.01 -7.34 8.02 -7 7 C-5.02043058 5.30911778 -3.02054804 3.64169528 -1 2 C-0.67 1.34 -0.34 0.68 0 0 Z " fill="#359DC9" transform="translate(781,717)"/>
<path d="M0 0 C2.99723741 1.93845934 3.78202358 2.53357075 4.9375 6 C4.2775 6 3.6175 6 2.9375 6 C2.9375 5.34 2.9375 4.68 2.9375 4 C2.15375 4.061875 1.37 4.12375 0.5625 4.1875 C-0.30375 4.125625 -1.17 4.06375 -2.0625 4 C-2.7225 3.01 -3.3825 2.02 -4.0625 1 C-5.3825 1.33 -6.7025 1.66 -8.0625 2 C-8.0625 2.66 -8.0625 3.32 -8.0625 4 C-10.72916667 4.66666667 -13.39583333 5.33333333 -16.0625 6 C-14.84107914 2.33573742 -13.85621976 1.87050752 -10.5625 0 C-6.25598798 -2.08199718 -4.23574323 -2.28444579 0 0 Z " fill="#4ABAE0" transform="translate(696.0625,259)"/>
<path d="M0 0 C0.66 0.33 1.32 0.66 2 1 C1.42389687 6.54955043 -0.02098548 11.26029497 -2.0625 16.4375 C-2.34416016 17.16904297 -2.62582031 17.90058594 -2.91601562 18.65429688 C-3.60413247 20.43873546 -4.30114606 22.21973905 -5 24 C-5.66 23.01 -6.32 22.02 -7 21 C-6.566875 20.236875 -6.13375 19.47375 -5.6875 18.6875 C-3.35297983 14.05165189 -2.25636323 9.01031602 -1 4 C-0.80664062 3.22914063 -0.61328125 2.45828125 -0.4140625 1.6640625 C-0.27742187 1.11492188 -0.14078125 0.56578125 0 0 Z " fill="#389FCC" transform="translate(806,668)"/>
<path d="M0 0 C-0.33 0.99 -0.66 1.98 -1 3 C-2.65 3.33 -4.3 3.66 -6 4 C-6 4.66 -6 5.32 -6 6 C-7.65 6.33 -9.3 6.66 -11 7 C-11 7.66 -11 8.32 -11 9 C-12.32 9 -13.64 9 -15 9 C-15.33 9.99 -15.66 10.98 -16 12 C-16.99 12.33 -17.98 12.66 -19 13 C-19.66 12.34 -20.32 11.68 -21 11 C-17.87907566 9.15966024 -14.75261783 7.32893744 -11.625 5.5 C-10.73554688 4.97535156 -9.84609375 4.45070313 -8.9296875 3.91015625 C-7.65351563 3.16572266 -7.65351563 3.16572266 -6.3515625 2.40625 C-5.56604004 1.94541016 -4.78051758 1.48457031 -3.97119141 1.00976562 C-2 0 -2 0 0 0 Z " fill="#4FC1E8" transform="translate(479,380)"/>
<path d="M0 0 C0.33 0.99 0.66 1.98 1 3 C0.34773438 3.70125 -0.30453125 4.4025 -0.9765625 5.125 C-5.5343909 10.07273112 -9.94048405 14.97264832 -13.74609375 20.5390625 C-15 22 -15 22 -18 23 C-16.48418428 19.4951774 -14.41191253 17.0908738 -11.8125 14.3125 C-7.60325099 9.72864145 -3.73635236 4.97379381 0 0 Z " fill="#4AB8E2" transform="translate(342,719)"/>
<path d="M0 0 C0.66 0.66 1.32 1.32 2 2 C5.08347826 2.16681109 5.08347826 2.16681109 8 2 C8 2.66 8 3.32 8 4 C6.27192682 4.33895656 4.54248026 4.67091525 2.8125 5 C1.36810547 5.2784375 1.36810547 5.2784375 -0.10546875 5.5625 C-2.7934206 5.96877612 -5.28771019 6.07933572 -8 6 C-7.67 5.01 -7.34 4.02 -7 3 C-3.4375 1.3125 -3.4375 1.3125 0 0 Z " fill="#3B9CC5" transform="translate(325,920)"/>
<path d="M0 0 C1.32 0.33 2.64 0.66 4 1 C0.9990408 3.46305142 -1.86188511 4.91069397 -5.5 6.25 C-6.90765625 6.78367187 -6.90765625 6.78367187 -8.34375 7.328125 C-11.07674477 8.01941191 -12.39280344 7.95925156 -15 7 C-15 6.34 -15 5.68 -15 5 C-14.05125 4.855625 -13.1025 4.71125 -12.125 4.5625 C-9.1065506 4.17064601 -9.1065506 4.17064601 -7 3 C-5.00039988 2.960008 -2.99952758 2.95653201 -1 3 C-0.67 2.01 -0.34 1.02 0 0 Z " fill="#379ECA" transform="translate(735,751)"/>
<path d="M0 0 C0.66 0.33 1.32 0.66 2 1 C-0.60237779 2.60735099 -3.18835701 4.09217471 -5.9375 5.4375 C-9.16720977 7.08531111 -12.02000625 8.94238527 -15 11 C-16.32 10.34 -17.64 9.68 -19 9 C-15.88112823 7.46635461 -12.75402378 5.95031107 -9.625 4.4375 C-8.73554688 3.99986328 -7.84609375 3.56222656 -6.9296875 3.11132812 C-6.07890625 2.70205078 -5.228125 2.29277344 -4.3515625 1.87109375 C-3.56604004 1.48880615 -2.78051758 1.10651855 -1.97119141 0.71264648 C-1.32069824 0.47747314 -0.67020508 0.2422998 0 0 Z " fill="#3CA8D3" transform="translate(515,830)"/>
<path d="M0 0 C0.66 0.33 1.32 0.66 2 1 C0.40311734 4.19376532 -2.83383035 5.57591496 -6 7 C-6.99 7 -7.98 7 -9 7 C-9.33 7.99 -9.66 8.98 -10 10 C-11.97746603 10.73080266 -13.98072489 11.39421747 -16 12 C-16.99 12.66 -17.98 13.32 -19 14 C-19 13.01 -19 12.02 -19 11 C-18.18994507 10.55346069 -18.18994507 10.55346069 -17.36352539 10.09790039 C-14.92887423 8.75452698 -12.4956726 7.40854945 -10.0625 6.0625 C-9.21236328 5.59392578 -8.36222656 5.12535156 -7.48632812 4.64257812 C-6.67744141 4.19462891 -5.86855469 3.74667969 -5.03515625 3.28515625 C-3.91185913 2.66459351 -3.91185913 2.66459351 -2.76586914 2.03149414 C-1.03748855 1.1221285 -1.03748855 1.1221285 0 0 Z " fill="#4FC1EA" transform="translate(499,367)"/>
<path d="M0 0 C0.66 0.33 1.32 0.66 2 1 C1.01 2.485 1.01 2.485 0 4 C-2.625 4.1875 -2.625 4.1875 -5 4 C-3.36587557 2.29159719 -2.13093906 1.06546953 0 0 Z M-5 4 C-6 7 -6 7 -8.1796875 8.421875 C-9.06914063 8.86015625 -9.95859375 9.2984375 -10.875 9.75 C-11.75929688 10.19859375 -12.64359375 10.6471875 -13.5546875 11.109375 C-16 12 -16 12 -19 11 C-17.04480616 9.82807953 -15.0857461 8.6626071 -13.125 7.5 C-12.03445313 6.8503125 -10.94390625 6.200625 -9.8203125 5.53125 C-7 4 -7 4 -5 4 Z " fill="#4DBCE4" transform="translate(640,286)"/>
<path d="M0 0 C2 1 2 1 2 1 Z M-2 1 C-1.34 1.33 -0.68 1.66 0 2 C-2.64 3.65 -5.28 5.3 -8 7 C-8.33 6.34 -8.66 5.68 -9 5 C-3.7265625 1.77734375 -3.7265625 1.77734375 -2 1 Z M-9 6 C-9 6.66 -9 7.32 -9 8 C-9.66 8 -10.32 8 -11 8 C-11.33 8.66 -11.66 9.32 -12 10 C-12.66 10.144375 -13.32 10.28875 -14 10.4375 C-14.66 10.623125 -15.32 10.80875 -16 11 C-16.33 11.99 -16.66 12.98 -17 14 C-18.32 13.34 -19.64 12.68 -21 12 C-19.37829621 10.99466333 -17.75252763 9.99588093 -16.125 9 C-14.76761719 8.1646875 -14.76761719 8.1646875 -13.3828125 7.3125 C-11 6 -11 6 -9 6 Z M-23 13 C-21 14 -21 14 -21 14 Z " fill="#4DBDE4" transform="translate(666,271)"/>
<path d="M0 0 C0.66 0.33 1.32 0.66 2 1 C2.99 1 3.98 1 5 1 C5 1.66 5 2.32 5 3 C3.39967863 3.84069415 1.79458829 4.67231505 0.1875 5.5 C-1.15248047 6.19609375 -1.15248047 6.19609375 -2.51953125 6.90625 C-5 8 -5 8 -8 8 C-6.49776416 3.79373966 -3.71449966 2.26099979 0 0 Z " fill="#32809E" transform="translate(109,973)"/>
<path d="M0 0 C0.8971875 0.5259375 0.8971875 0.5259375 1.8125 1.0625 C-0.97621177 2.40207921 -3.76893062 3.73308435 -6.5625 5.0625 C-7.3565625 5.4440625 -8.150625 5.825625 -8.96875 6.21875 C-9.72929688 6.5796875 -10.48984375 6.940625 -11.2734375 7.3125 C-11.9751709 7.64765625 -12.6769043 7.9828125 -13.39990234 8.328125 C-15.1875 9.0625 -15.1875 9.0625 -17.1875 9.0625 C-17.1875 8.4025 -17.1875 7.7425 -17.1875 7.0625 C-16.5275 7.0625 -15.8675 7.0625 -15.1875 7.0625 C-14.8575 6.4025 -14.5275 5.7425 -14.1875 5.0625 C-12.14225679 4.46744001 -10.09416043 4.10783219 -8 3.72265625 C-7.401875 3.50480469 -6.80375 3.28695312 -6.1875 3.0625 C-5.8575 2.0725 -5.5275 1.0825 -5.1875 0.0625 C-2.1875 -0.9375 -2.1875 -0.9375 0 0 Z " fill="#39A5D3" transform="translate(833.1875,631.9375)"/>
<path d="M0 0 C0.66 0.33 1.32 0.66 2 1 C1.195625 1.61875 0.39125 2.2375 -0.4375 2.875 C-3.03874519 4.74164041 -3.03874519 4.74164041 -4 7 C-5.98 7 -7.96 7 -10 7 C-7.20283196 3.70921407 -3.80471422 1.93694542 0 0 Z M-12 7 C-10 8 -10 8 -10 8 Z M-12 8 C-12.66 9.32 -13.32 10.64 -14 12 C-14.99 11.67 -15.98 11.34 -17 11 C-14.25 8 -14.25 8 -12 8 Z " fill="#4DBDE6" transform="translate(586,317)"/>
<path d="M0 0 C0.66 0.33 1.32 0.66 2 1 C-1.28380602 3.03382681 -4.57821272 5.04979562 -7.875 7.0625 C-8.81214844 7.64322266 -9.74929688 8.22394531 -10.71484375 8.82226562 C-11.61074219 9.36689453 -12.50664063 9.91152344 -13.4296875 10.47265625 C-14.25710449 10.98062744 -15.08452148 11.48859863 -15.93701172 12.01196289 C-16.61779785 12.33801514 -17.29858398 12.66406738 -18 13 C-18.66 12.67 -19.32 12.34 -20 12 C-18.22198802 9.94124929 -17.00823887 9.00321517 -14.4375 8 C-11.68761678 7.13727591 -11.68761678 7.13727591 -10 4 C-9.01 4 -8.02 4 -7 4 C-5.20659487 3.10218126 -5.20659487 3.10218126 -3.4375 1.9375 C-2.303125 1.298125 -1.16875 0.65875 0 0 Z " fill="#4ABAE5" transform="translate(553,489)"/>
<path d="M0 0 C0.66 0.33 1.32 0.66 2 1 C1.67 1.66 1.34 2.32 1 3 C3.31 2.01 5.62 1.02 8 0 C8.33 0.66 8.66 1.32 9 2 C3.95859836 4.81532819 -0.22621075 6.5188509 -6 7 C-4.19587357 3.73539027 -3.16605307 2.11070205 0 0 Z " fill="#3EA0C3" transform="translate(115,969)"/>
<path d="M0 0 C0.33 0.66 0.66 1.32 1 2 C-0.98 2.99 -0.98 2.99 -3 4 C-3.33 3.34 -3.66 2.68 -4 2 C-2.68 1.34 -1.36 0.68 0 0 Z M-4 4 C-9.91684902 8.90153173 -9.91684902 8.90153173 -14.4375 9.3125 C-15.283125 9.209375 -16.12875 9.10625 -17 9 C-8.82022472 2.39325843 -8.82022472 2.39325843 -4 4 Z " fill="#3DA8D2" transform="translate(462,855)"/>
<path d="M0 0 C0.66 0.33 1.32 0.66 2 1 C-3.445 7.435 -3.445 7.435 -9 14 C-9.66 13.67 -10.32 13.34 -11 13 C-9.54300902 11.20724155 -8.08436345 9.41582771 -6.625 7.625 C-5.40683594 6.12839844 -5.40683594 6.12839844 -4.1640625 4.6015625 C-2 2 -2 2 0 0 Z M-12 14 C-11.67 14.66 -11.34 15.32 -11 16 C-11.66 15.67 -12.32 15.34 -13 15 C-12.67 14.67 -12.34 14.34 -12 14 Z " fill="#4AB8E2" transform="translate(357,702)"/>
<path d="M0 0 C0.99 0.33 1.98 0.66 3 1 C2.34 2.32 1.68 3.64 1 5 C0.34 5 -0.32 5 -1 5 C-2.33783393 5.31478446 -3.67203709 5.64587656 -5 6 C-5.33 5.34 -5.66 4.68 -6 4 C-3.1875 1.9375 -3.1875 1.9375 0 0 Z M-8 5 C-7.34 5 -6.68 5 -6 5 C-6.66 6.32 -7.32 7.64 -8 9 C-8.66 9 -9.32 9 -10 9 C-9.34 7.68 -8.68 6.36 -8 5 Z " fill="#2C8BB8" transform="translate(1020,678)"/>
<path d="M0 0 C0.66 0.33 1.32 0.66 2 1 C0.9375 3.4375 0.9375 3.4375 -1 6 C-4.6875 6.8125 -4.6875 6.8125 -8 7 C-6.89300099 3.78970286 -5.98396175 2.99031023 -3 1.1875 C-1.515 0.5996875 -1.515 0.5996875 0 0 Z " fill="#3FAAD6" transform="translate(333,916)"/>
<path d="M0 0 C1.18851563 0.10183594 2.37703125 0.20367188 3.6015625 0.30859375 C4.51679687 0.39238281 5.43203125 0.47617187 6.375 0.5625 C6.045 1.2225 5.715 1.8825 5.375 2.5625 C1.085 2.5625 -3.205 2.5625 -7.625 2.5625 C-7.955 1.9025 -8.285 1.2425 -8.625 0.5625 C-5.68113377 -0.90943312 -3.25109964 -0.28686173 0 0 Z " fill="#379CC8" transform="translate(686.625,761.4375)"/>
<path d="M0 0 C5.53642384 0.8807947 5.53642384 0.8807947 8.1875 1.5625 C10.17528206 2.11732027 10.17528206 2.11732027 13 2 C13 2.99 13 3.98 13 5 C8.03083364 4.48594831 3.70973649 3.76615118 -1 2 C-0.67 1.34 -0.34 0.68 0 0 Z " fill="#38A0CA" transform="translate(647,756)"/>
<path d="M0 0 C-3.2811302 2.18742014 -5.33084356 2.54442806 -9.1875 3.125 C-10.27417969 3.29257812 -11.36085938 3.46015625 -12.48046875 3.6328125 C-13.31191406 3.75398437 -14.14335937 3.87515625 -15 4 C-15 3.01 -15 2.02 -15 1 C-10.03926578 -0.32286246 -5.08888488 -0.08893197 0 0 Z " fill="#3CA5D0" transform="translate(384,913)"/>
<path d="M0 0 C0.99 0.66 1.98 1.32 3 2 C1.37750059 2.83819158 -0.24808497 3.6704116 -1.875 4.5 C-3.23238281 5.19609375 -3.23238281 5.19609375 -4.6171875 5.90625 C-7 7 -7 7 -9 7 C-9 6.34 -9 5.68 -9 5 C-6.03 3.35 -3.06 1.7 0 0 Z " fill="#369FCB" transform="translate(748,745)"/>
<path d="M0 0 C0.66 0.33 1.32 0.66 2 1 C1.34 2.32 0.68 3.64 0 5 C-2.475 4.01 -2.475 4.01 -5 3 C-3 1 -3 1 0 0 Z M-5 3 C-5 3.66 -5 4.32 -5 5 C-6.32 5.33 -7.64 5.66 -9 6 C-9 5.34 -9 4.68 -9 4 C-7 3 -7 3 -5 3 Z " fill="#3FABD7" transform="translate(355,906)"/>
<path d="M0 0 C3.3 0 6.6 0 10 0 C9.67 0.66 9.34 1.32 9 2 C6.71484375 2.4140625 6.71484375 2.4140625 3.9375 2.625 C3.01839844 2.69976563 2.09929688 2.77453125 1.15234375 2.8515625 C0.44207031 2.90054688 -0.26820313 2.94953125 -1 3 C-0.67 2.01 -0.34 1.02 0 0 Z " fill="#369FCC" transform="translate(694,761)"/>
<path d="M0 0 C-1 3 -1 3 -3.0625 4.1875 C-3.701875 4.455625 -4.34125 4.72375 -5 5 C-5 4.01 -5 3.02 -5 2 C-2 0 -2 0 0 0 Z M-8 4 C-7.34 4.33 -6.68 4.66 -6 5 C-6.66 5.66 -7.32 6.32 -8 7 C-8 6.01 -8 5.02 -8 4 Z M-11 6 C-10.34 6.33 -9.68 6.66 -9 7 C-9.99 7 -10.98 7 -12 7 C-11.67 6.67 -11.34 6.34 -11 6 Z " fill="#3FA7D2" transform="translate(790,506)"/>
<path d="M0 0 C-3.12488567 2.52394612 -6.31314387 4.39701907 -10 6 C-10.66 5.67 -11.32 5.34 -12 5 C-4.28571429 -1.42857143 -4.28571429 -1.42857143 0 0 Z " fill="#36A0CD" transform="translate(969,568)"/>
<path d="M0 0 C0 0.66 0 1.32 0 2 C-5.41176471 6 -5.41176471 6 -8 6 C-7.25 3.5625 -7.25 3.5625 -6 1 C-3.84657966 0.12517299 -2.30989225 0 0 0 Z " fill="#3FA5CB" transform="translate(265,815)"/>
<path d="M0 0 C4.95 1.98 4.95 1.98 10 4 C9.67 4.66 9.34 5.32 9 6 C6.03 5.01 3.06 4.02 0 3 C0 2.01 0 1.02 0 0 Z " fill="#3AA3CF" transform="translate(633,750)"/>
<path d="M0 0 C0 0.66 0 1.32 0 2 C-1.28650706 2.69710731 -2.57940665 3.38242876 -3.875 4.0625 C-4.95394531 4.63677734 -4.95394531 4.63677734 -6.0546875 5.22265625 C-6.69664062 5.47917969 -7.33859375 5.73570312 -8 6 C-8.66 5.67 -9.32 5.34 -10 5 C-6.82795656 1.48809477 -4.74687042 0 0 0 Z " fill="#39A1CB" transform="translate(845,626)"/>
<path d="M0 0 C-3.36423277 2.96052484 -6.69159287 3.92289822 -11 5 C-11 4.34 -11 3.68 -11 3 C-7.14243493 0.84694043 -4.44870215 -0.39253254 0 0 Z " fill="#36A0CD" transform="translate(919,592)"/>
<path d="M0 0 C0.33 1.32 0.66 2.64 1 4 C-1.97 6.475 -1.97 6.475 -5 9 C-5.33 8.01 -5.66 7.02 -6 6 C-4 4 -2 2 0 0 Z " fill="#3AA6D5" transform="translate(745,674)"/>
<path d="M0 0 C0.99 0.33 1.98 0.66 3 1 C1.68 2.32 0.36 3.64 -1 5 C-2.32 4.34 -3.64 3.68 -5 3 C-2.6875 1.4375 -2.6875 1.4375 0 0 Z M-7 4 C-6.34 4.33 -5.68 4.66 -5 5 C-5.99 5 -6.98 5 -8 5 C-7.67 4.67 -7.34 4.34 -7 4 Z " fill="#4BBBE3" transform="translate(676,265)"/>
<path d="M0 0 C0.66 0.33 1.32 0.66 2 1 C0.25 3.0625 0.25 3.0625 -2 5 C-4.25 4.75 -4.25 4.75 -6 4 C-4.03617993 2.49440461 -2.21736634 1.10868317 0 0 Z M-8 4 C-6 5 -6 5 -6 5 Z " fill="#3BA6D1" transform="translate(533,821)"/>
<path d="M0 0 C0.556875 0.226875 1.11375 0.45375 1.6875 0.6875 C-0.93448774 2.84127564 -2.95654172 4.08822174 -6.3125 4.6875 C-6.6425 4.0275 -6.9725 3.3675 -7.3125 2.6875 C-2.88173077 -0.38942308 -2.88173077 -0.38942308 0 0 Z " fill="#369FCC" transform="translate(936.3125,582.3125)"/>
<path d="M0 0 C0.66 0.66 1.32 1.32 2 2 C0.71349294 2.69710731 -0.57940665 3.38242876 -1.875 4.0625 C-2.95394531 4.63677734 -2.95394531 4.63677734 -4.0546875 5.22265625 C-4.69664062 5.47917969 -5.33859375 5.73570312 -6 6 C-6.66 5.67 -7.32 5.34 -8 5 C-5.64722731 2.27573689 -3.37503669 1.1858237 0 0 Z " fill="#35A1CD" transform="translate(982,560)"/>
<path d="M0 0 C0.66 0.33 1.32 0.66 2 1 C2.99 1 3.98 1 5 1 C5 1.66 5 2.32 5 3 C3.02 3.66 1.04 4.32 -1 5 C-1.66 4.01 -2.32 3.02 -3 2 C-2.01 1.34 -1.02 0.68 0 0 Z " fill="#3790B0" transform="translate(109,973)"/>
<path d="M0 0 C0 0.66 0 1.32 0 2 C-0.66 2 -1.32 2 -2 2 C-2.33 2.66 -2.66 3.32 -3 4 C-3 3.34 -3 2.68 -3 2 C-3.66 1.67 -4.32 1.34 -5 1 C-3 0 -3 0 0 0 Z M-7 2 C-5 3 -5 3 -5 3 Z M-9 3 C-8.01 3.33 -7.02 3.66 -6 4 C-6.99 4 -7.98 4 -9 4 C-9 3.67 -9 3.34 -9 3 Z " fill="#39A4D1" transform="translate(557,811)"/>
<path d="M0 0 C1.98 0.99 3.96 1.98 6 3 C6 3.99 6 4.98 6 6 C4.02 5.01 2.04 4.02 0 3 C0 2.01 0 1.02 0 0 Z " fill="#39A1CC" transform="translate(580,805)"/>
<path d="M0 0 C0.66 0.66 1.32 1.32 2 2 C1.34 2 0.68 2 0 2 C-0.4640625 2.928125 -0.4640625 2.928125 -0.9375 3.875 C-1.625 5.25 -2.3125 6.625 -3 8 C-3.66 8 -4.32 8 -5 8 C-4.64950425 4.75791433 -4.43778819 3.38472296 -1.9375 1.1875 C-1.298125 0.795625 -0.65875 0.40375 0 0 Z " fill="#3BA8D6" transform="translate(712,700)"/>
<path d="M0 0 C0.99 0.66 1.98 1.32 3 2 C-2.2734375 5.22265625 -2.2734375 5.22265625 -4 6 C-4.66 5.67 -5.32 5.34 -6 5 C-5.01 4.67 -4.02 4.34 -3 4 C-2.67 3.01 -2.34 2.02 -2 1 C-1.34 0.67 -0.68 0.34 0 0 Z " fill="#49BBE5" transform="translate(516,509)"/>
</svg>
